<?xml version="1.0" encoding="UTF-8"?>
<!DOCTYPE svg PUBLIC "-//W3C//DTD SVG 1.1//EN" "http://www.w3.org/Graphics/SVG/1.1/DTD/svg11.dtd">
<!-- Creator: CorelDRAW 2020 (64-Bit) -->
<svg xmlns="http://www.w3.org/2000/svg" xml:space="preserve" width="100.425mm" height="100.425mm" version="1.1" style="shape-rendering:geometricPrecision; text-rendering:geometricPrecision; image-rendering:optimizeQuality; fill-rule:evenodd; clip-rule:evenodd"
viewBox="0 0 3869.22 3869.22"
 xmlns:xlink="http://www.w3.org/1999/xlink"
 xmlns:xodm="http://www.corel.com/coreldraw/odm/2003">
 <defs>
  <style type="text/css">
   <![CDATA[
    .fil0 {fill:none}
    .fil1 {fill:#727271;fill-rule:nonzero}
   ]]>
  </style>
 </defs>
 <g id="Слой_x0020_1">
  <metadata id="CorelCorpID_0Corel-Layer"/>
  <rect class="fil0" x="-0.01" y="0" width="3869.22" height="3869.22"/>
  <path class="fil1" d="M1936.92 868.87c43.9,0 88.45,5.05 132.46,14.58 131.58,28.55 258.65,97.71 352.77,193.51 95.08,96.73 156.91,220.65 156.91,357.72 0,32.32 -3.48,65.47 -10.78,99.1 -67.58,311.34 -343.84,897.32 -515.79,1262.06 -51.72,109.71 -94.13,199.57 -117.47,253.43l-21.54 49.68 -20.32 -50.12c-24.69,-60.95 -64.67,-150.95 -113.03,-259.93 -161.65,-364.25 -416.17,-937.77 -476.15,-1253.71 -5.98,-31.6 -8.87,-62.6 -8.87,-92.76 0,-142.44 62.74,-270.41 159.88,-369.12 96.32,-97.89 226.92,-167.18 363.55,-193.07 39.26,-7.46 78.98,-11.38 118.4,-11.38zm122.86 58.99c-40.73,-8.82 -82.03,-13.49 -122.86,-13.49 -36.86,0 -73.8,3.61 -110.04,10.5 -127.66,24.2 -249.64,88.89 -339.56,180.28 -89.14,90.59 -146.72,207.57 -146.72,337.29 0,27.7 2.6,55.92 8,84.4 59.07,311.14 312.19,881.49 472.94,1243.75 37.35,84.17 69.83,157.32 93.4,212.47 24.84,-54.68 58.01,-125.05 96.47,-206.62 171.07,-362.88 445.94,-945.89 512.44,-1252.26 6.55,-30.26 9.7,-60.2 9.7,-89.51 0,-124.3 -56.64,-237.29 -143.75,-325.89 -87.96,-89.53 -206.85,-154.2 -330.02,-180.92zm-133.56 349.36c70.83,0 135.01,28.97 181.47,75.73 46.38,46.77 75.14,111.33 75.14,182.55 0,71.24 -28.74,135.81 -75.14,182.55 -46.46,46.79 -110.63,75.76 -181.47,75.76 -70.83,0 -135.01,-28.97 -181.47,-75.76 -46.4,-46.74 -75.14,-111.3 -75.14,-182.55 0,-71.22 28.76,-135.79 75.14,-182.55 46.46,-46.77 110.63,-75.73 181.47,-75.73zm149.27 107.72c-38.15,-38.41 -90.95,-62.22 -149.27,-62.22 -58.32,0 -111.12,23.81 -149.27,62.22 -38.18,38.49 -61.83,91.75 -61.83,150.57 0,58.86 23.65,112.1 61.83,150.56 38.17,38.46 90.95,62.24 149.27,62.24 58.32,0 111.1,-23.78 149.27,-62.24 38.17,-38.46 61.83,-91.7 61.83,-150.56 0,-58.81 -23.66,-112.08 -61.83,-150.57zm203.62 1300.39c131.94,22.34 243.53,57.55 321.71,101.04 80.87,44.96 127.68,100 127.68,160.73 0,84.17 -91.44,158.12 -239.17,209.56 -140.63,48.93 -334.4,79.26 -547.86,79.26 -213.45,0 -407.22,-30.33 -547.86,-79.26 -147.73,-51.44 -239.17,-125.39 -239.17,-209.56 0,-57.85 42.33,-110.45 116.08,-154.15 71.17,-42.17 173.26,-77.05 294.86,-100.65l8.51 44.63c-116.46,22.59 -213.47,55.56 -280.26,95.13 -59.51,35.26 -93.69,74.7 -93.69,115.04 0,62.74 79.76,121.88 208.58,166.74 135.89,47.28 324.29,76.58 532.95,76.58 208.65,0 397.06,-29.3 532.95,-76.58 128.82,-44.86 208.58,-104 208.58,-166.74 0,-42.74 -38.23,-84.4 -104.21,-121.11 -73.64,-40.96 -180.23,-74.39 -307.16,-95.88l7.48 -44.78z"/>
 </g>
</svg>
