<?xml version="1.0" encoding="UTF-8"?>
<!DOCTYPE svg PUBLIC "-//W3C//DTD SVG 1.1//EN" "http://www.w3.org/Graphics/SVG/1.1/DTD/svg11.dtd">
<!-- Creator: CorelDRAW 2020 (64-Bit) -->
<svg xmlns="http://www.w3.org/2000/svg" xml:space="preserve" width="100.425mm" height="100.425mm" version="1.1" style="shape-rendering:geometricPrecision; text-rendering:geometricPrecision; image-rendering:optimizeQuality; fill-rule:evenodd; clip-rule:evenodd"
viewBox="0 0 875.9 875.9"
 xmlns:xlink="http://www.w3.org/1999/xlink"
 xmlns:xodm="http://www.corel.com/coreldraw/odm/2003">
 <defs>
  <style type="text/css">
   <![CDATA[
    .fil0 {fill:none}
    .fil1 {fill:#727271;fill-rule:nonzero}
   ]]>
  </style>
 </defs>
 <g id="Слой_x0020_1">
  <metadata id="CorelCorpID_0Corel-Layer"/>
  <rect class="fil0" x="-0" y="-0" width="875.9" height="875.9"/>
  <path class="fil1" d="M432.87 235.87c56.53,0 107.73,22.45 144.8,58.7 37.17,36.34 60.16,86.56 60.16,142 0,55.43 -22.99,105.66 -60.16,142 -37.07,36.26 -88.28,58.7 -144.8,58.7 -56.53,0 -107.73,-22.45 -144.8,-58.7 -37.17,-36.34 -60.16,-86.57 -60.16,-142 0,-55.44 22.99,-105.65 60.16,-142 37.07,-36.25 88.28,-58.7 144.8,-58.7zm134.72 69.34c-34.44,-33.68 -82.09,-54.54 -134.72,-54.54 -52.63,0 -100.27,20.85 -134.71,54.54 -34.35,33.6 -55.61,80.05 -55.61,131.36 0,51.31 21.25,97.76 55.61,131.36 34.44,33.69 82.08,54.54 134.71,54.54 52.63,0 100.27,-20.85 134.72,-54.54 34.35,-33.59 55.61,-80.04 55.61,-131.36 0,-51.3 -21.25,-97.76 -55.61,-131.36zm-141.16 146.92l0 -0.18 0 -12.88 0 -127.57 12.88 0 0 127.57 75.86 0 0 12.88 -75.86 0 0 0.18 -12.88 0zm6.44 -183.3c5.06,0 9.16,3.99 9.16,8.91 0,4.92 -4.1,8.91 -9.16,8.91 -5.06,0 -9.16,-3.99 -9.16,-8.91 0,-4.92 4.1,-8.91 9.16,-8.91zm0 317.65c5.06,0 9.16,3.99 9.16,8.91 0,4.92 -4.1,8.91 -9.16,8.91 -5.06,0 -9.16,-3.99 -9.16,-8.91 0,-4.92 4.1,-8.91 9.16,-8.91zm-167.73 -149.91c0,-5.06 3.99,-9.16 8.91,-9.16 4.92,0 8.91,4.1 8.91,9.16 0,5.06 -3.99,9.16 -8.91,9.16 -4.92,0 -8.91,-4.1 -8.91,-9.16zm317.65 0c-0,-5.06 3.99,-9.16 8.91,-9.16 4.92,0 8.91,4.1 8.91,9.16 0,5.06 -3.99,9.16 -8.91,9.16 -4.92,0 -8.91,-4.1 -8.91,-9.16zm-268.52 -118.6c3.58,-3.58 9.3,-3.66 12.78,-0.18 3.48,3.48 3.4,9.2 -0.18,12.78 -3.58,3.58 -9.3,3.66 -12.78,0.18 -3.48,-3.48 -3.4,-9.2 0.18,-12.78zm224.61 224.61c3.58,-3.58 9.3,-3.66 12.78,-0.18 3.48,3.48 3.4,9.2 -0.18,12.78 -3.58,3.58 -9.3,3.66 -12.78,0.18 -3.48,-3.48 -3.4,-9.2 0.18,-12.78zm12.6 -224.61c-3.58,-3.58 -9.3,-3.66 -12.78,-0.18 -3.48,3.48 -3.4,9.2 0.18,12.78 3.58,3.58 9.3,3.66 12.78,0.18 3.48,-3.48 3.4,-9.2 -0.18,-12.78zm-224.61 224.61c-3.58,-3.58 -9.3,-3.66 -12.78,-0.18 -3.48,3.48 -3.4,9.2 0.18,12.78 3.58,3.58 9.3,3.66 12.78,0.18 3.48,-3.48 3.4,-9.2 -0.18,-12.78z"/>
 </g>
</svg>
