<?xml version="1.0" encoding="UTF-8"?>
<!DOCTYPE svg PUBLIC "-//W3C//DTD SVG 1.1//EN" "http://www.w3.org/Graphics/SVG/1.1/DTD/svg11.dtd">
<!-- Creator: CorelDRAW 2020 (64-Bit) -->
<svg xmlns="http://www.w3.org/2000/svg" xml:space="preserve" width="100.425mm" height="100.425mm" version="1.1" style="shape-rendering:geometricPrecision; text-rendering:geometricPrecision; image-rendering:optimizeQuality; fill-rule:evenodd; clip-rule:evenodd"
viewBox="0 0 2052.78 2052.78"
 xmlns:xlink="http://www.w3.org/1999/xlink"
 xmlns:xodm="http://www.corel.com/coreldraw/odm/2003">
 <defs>
  <style type="text/css">
   <![CDATA[
    .fil0 {fill:none}
    .fil1 {fill:#727271;fill-rule:nonzero}
   ]]>
  </style>
 </defs>
 <g id="Слой_x0020_1">
  <metadata id="CorelCorpID_0Corel-Layer"/>
  <rect class="fil0" x="-0.01" y="-0" width="2052.78" height="2052.78"/>
  <path class="fil1" d="M752.98 426.51l560.81 0c20.31,0 38.77,8.29 52.14,21.66 13.36,13.41 21.66,31.87 21.66,52.13l0 1108.23c0,20.25 -8.31,38.72 -21.69,52.1 -13.34,13.4 -31.8,21.69 -52.11,21.69l-560.81 0c-20.25,0 -38.69,-8.29 -52.07,-21.66 -13.43,-13.44 -21.72,-31.89 -21.72,-52.13l0 -1108.23c0,-20.25 8.29,-38.69 21.66,-52.07 13.44,-13.43 31.87,-21.72 52.13,-21.72zm560.81 24.14l-560.81 0c-13.67,0 -26.08,5.58 -35.05,14.55 -9.02,9.02 -14.6,21.43 -14.6,35.1l0 1108.23c0,13.66 5.58,26.08 14.55,35.05 9.02,9.02 21.43,14.6 35.1,14.6l560.81 0c13.63,0 26.06,-5.6 35.06,-14.6 9.02,-8.96 14.6,-21.39 14.6,-35.05l0 -1108.23c0,-13.66 -5.58,-26.08 -14.55,-35.05 -9.06,-9 -21.49,-14.6 -35.12,-14.6zm-280.4 1053.97c21.13,0 40.36,7.96 54.3,20.84 14.22,13.11 23.03,31.31 23.03,51.44 0,20.12 -8.81,38.33 -23.03,51.44 -13.94,12.88 -33.17,20.84 -54.3,20.84 -21.13,0 -40.37,-7.97 -54.32,-20.84 -14.22,-13.11 -23.03,-31.33 -23.03,-51.44 0,-20.13 8.81,-38.33 23.03,-51.44 13.94,-12.88 33.19,-20.84 54.32,-20.84zm37.99 38.58c-9.65,-8.91 -23.1,-14.44 -37.99,-14.44 -14.89,0 -28.36,5.53 -38,14.44 -9.37,8.65 -15.2,20.6 -15.2,33.71 0,13.12 5.83,25.06 15.2,33.71 9.65,8.91 23.11,14.44 38,14.44 14.89,0 28.34,-5.53 37.99,-14.44 9.37,-8.65 15.2,-20.58 15.2,-33.71 0,-13.11 -5.83,-25.06 -15.2,-33.71zm-262.32 -980.57l448.64 0c16.93,0 32.3,6.91 43.42,18.04 11.13,11.13 18.04,26.5 18.04,43.41l0 807.33c0,16.91 -6.91,32.28 -18.04,43.41 -11.13,11.13 -26.49,18.04 -43.42,18.04l-448.64 0c-16.89,0 -32.26,-6.93 -43.38,-18.06 -11.15,-11.1 -18.06,-26.47 -18.06,-43.38l0 -807.33c0,-16.87 6.91,-32.23 18.04,-43.36 11.18,-11.18 26.53,-18.09 43.41,-18.09zm448.64 24.14l-448.64 0c-10.28,0 -19.61,4.2 -26.33,10.92 -6.77,6.77 -10.97,16.11 -10.97,26.39l0 807.33c0,10.23 4.21,19.57 10.97,26.33 6.72,6.77 16.05,10.97 26.33,10.97l448.64 0c10.24,0 19.58,-4.21 26.34,-10.97 6.76,-6.76 10.97,-16.1 10.97,-26.33l0 -807.33c0,-10.24 -4.21,-19.57 -10.97,-26.33 -6.76,-6.76 -16.11,-10.98 -26.34,-10.98zm-348.78 -85.7l248.93 0 0 24.14 -248.93 0 0 -24.14z"/>
 </g>
</svg>
