<?xml version="1.0" encoding="UTF-8"?>
<!DOCTYPE svg PUBLIC "-//W3C//DTD SVG 1.1//EN" "http://www.w3.org/Graphics/SVG/1.1/DTD/svg11.dtd">
<!-- Creator: CorelDRAW 2020 (64-Bit) -->
<svg xmlns="http://www.w3.org/2000/svg" xml:space="preserve" width="100.425mm" height="100.425mm" version="1.1" style="shape-rendering:geometricPrecision; text-rendering:geometricPrecision; image-rendering:optimizeQuality; fill-rule:evenodd; clip-rule:evenodd"
viewBox="0 0 1065.46 1065.46"
 xmlns:xlink="http://www.w3.org/1999/xlink"
 xmlns:xodm="http://www.corel.com/coreldraw/odm/2003">
 <defs>
  <style type="text/css">
   <![CDATA[
    .fil0 {fill:none}
    .fil1 {fill:#727271;fill-rule:nonzero}
   ]]>
  </style>
 </defs>
 <g id="Слой_x0020_1">
  <metadata id="CorelCorpID_0Corel-Layer"/>
  <rect class="fil0" x="-0" y="-0" width="1065.46" height="1065.46"/>
  <path class="fil1" d="M356.18 278.5l353.1 0c21.37,0 40.8,8.74 54.87,22.81 14.07,14.07 22.82,33.51 22.82,54.87l0 353.09c0,21.37 -8.74,40.8 -22.82,54.87 -14.07,14.07 -33.5,22.81 -54.87,22.81l-353.1 0c-21.37,0 -40.8,-8.74 -54.87,-22.81 -14.07,-14.07 -22.82,-33.5 -22.82,-54.87l0 -353.09c0,-21.37 8.74,-40.8 22.82,-54.87 14.07,-14.07 33.5,-22.81 54.87,-22.81zm353.1 14.21l-353.1 0c-17.44,0 -33.33,7.15 -44.83,18.65 -11.5,11.5 -18.65,27.38 -18.65,44.83l0 353.09c0,17.45 7.15,33.33 18.65,44.83 11.5,11.5 27.38,18.65 44.83,18.65l353.1 0c17.44,0 33.33,-7.15 44.83,-18.65 11.5,-11.5 18.65,-27.38 18.65,-44.83l0 -353.09c0,-17.45 -7.15,-33.33 -18.65,-44.83 -11.5,-11.5 -27.38,-18.65 -44.83,-18.65zm-21.06 37.43c12.64,0 24.14,4.92 32.46,12.84 8.42,8.02 13.64,19.11 13.64,31.38 0,12.26 -5.21,23.36 -13.64,31.38 -8.33,7.92 -19.82,12.84 -32.46,12.84 -12.64,0 -24.14,-4.92 -32.46,-12.84 -8.42,-8.02 -13.64,-19.12 -13.64,-31.38 0,-12.27 5.21,-23.36 13.64,-31.38 8.32,-7.92 19.82,-12.84 32.46,-12.84zm22.69 23.11c-5.77,-5.49 -13.8,-8.9 -22.69,-8.9 -8.89,0 -16.92,3.41 -22.69,8.9 -5.68,5.41 -9.21,12.89 -9.21,21.11 0,8.23 3.52,15.71 9.21,21.11 5.77,5.49 13.8,8.9 22.69,8.9 8.89,0 16.92,-3.41 22.69,-8.9 5.68,-5.41 9.2,-12.88 9.2,-21.11 0,-8.23 -3.52,-15.71 -9.2,-21.11zm-178.17 46.94c37.33,0 71.15,14.82 95.64,38.77 24.55,24 39.73,57.17 39.73,93.78 0,36.61 -15.19,69.78 -39.73,93.78 -24.48,23.94 -58.3,38.77 -95.64,38.77 -37.33,0 -71.15,-14.82 -95.64,-38.77 -24.55,-24 -39.73,-57.17 -39.73,-93.78 0,-36.62 15.19,-69.78 39.73,-93.78 24.48,-23.94 58.3,-38.77 95.64,-38.77zm85.76 48.93c-21.93,-21.44 -52.26,-34.72 -85.76,-34.72 -33.5,0 -63.83,13.28 -85.76,34.72 -21.87,21.39 -35.4,50.97 -35.4,83.62 0,32.67 13.53,62.24 35.4,83.62 21.93,21.45 52.26,34.72 85.76,34.72 33.51,0 63.84,-13.28 85.76,-34.72 21.87,-21.39 35.4,-50.96 35.4,-83.62 0,-32.66 -13.53,-62.24 -35.4,-83.62zm-85.76 -22.7c29.92,0 57.05,11.89 76.68,31.08 19.7,19.27 31.88,45.87 31.88,75.24 0,29.36 -12.18,55.97 -31.85,75.22 -19.66,19.22 -46.79,31.11 -76.71,31.11 -29.92,0 -57.04,-11.88 -76.68,-31.08 -19.7,-19.27 -31.88,-45.88 -31.88,-75.24 0,-29.37 12.18,-55.97 31.85,-75.21 19.67,-19.23 46.79,-31.11 76.71,-31.11zm66.81 41.24c-17.08,-16.69 -40.71,-27.03 -66.81,-27.03 -26.1,0 -49.73,10.34 -66.8,27.03 -17.01,16.66 -27.55,39.68 -27.55,65.09 0,25.41 10.53,48.43 27.55,65.09 17.08,16.69 40.71,27.03 66.8,27.03 26.1,0 49.73,-10.34 66.81,-27.03 17.01,-16.66 27.55,-39.68 27.55,-65.09 0,-25.41 -10.53,-48.43 -27.55,-65.09z"/>
 </g>
</svg>
