<?xml version="1.0" encoding="UTF-8"?>
<!DOCTYPE svg PUBLIC "-//W3C//DTD SVG 1.1//EN" "http://www.w3.org/Graphics/SVG/1.1/DTD/svg11.dtd">
<!-- Creator: CorelDRAW 2020 (64-Bit) -->
<svg xmlns="http://www.w3.org/2000/svg" xml:space="preserve" width="100.425mm" height="100.425mm" version="1.1" style="shape-rendering:geometricPrecision; text-rendering:geometricPrecision; image-rendering:optimizeQuality; fill-rule:evenodd; clip-rule:evenodd"
viewBox="0 0 1402.82 1402.82"
 xmlns:xlink="http://www.w3.org/1999/xlink"
 xmlns:xodm="http://www.corel.com/coreldraw/odm/2003">
 <defs>
  <style type="text/css">
   <![CDATA[
    .fil0 {fill:none}
    .fil1 {fill:#727271;fill-rule:nonzero}
   ]]>
  </style>
 </defs>
 <g id="Слой_x0020_1">
  <metadata id="CorelCorpID_0Corel-Layer"/>
  <rect class="fil0" x="-0.01" y="-0" width="1402.82" height="1402.82"/>
  <path class="fil1" d="M701.41 272.32c118,0 225.29,48.27 303.05,126.04 45.54,45.53 80.94,101.18 102.49,163.18l-17.52 0c-20.88,-57.44 -54.19,-109.04 -96.65,-151.5 -74.78,-74.79 -177.93,-121.21 -291.38,-121.21 -113.45,0 -216.6,46.42 -291.38,121.21 -42.46,42.46 -75.76,94.07 -96.64,151.5l-17.52 0c21.54,-62 56.95,-117.65 102.48,-163.18 77.76,-77.77 185.05,-126.04 303.06,-126.04zm410.81 552.76c-20.76,68.51 -58.28,129.93 -107.76,179.39 -77.75,77.75 -185.04,126.04 -303.05,126.04 -118.02,0 -225.3,-48.28 -303.06,-126.04 -49.46,-49.46 -86.98,-110.87 -107.75,-179.39l17.27 0c20.26,63.96 55.74,121.31 102.15,167.72 74.78,74.78 177.94,121.21 291.38,121.21 113.44,0 216.6,-46.43 291.38,-121.21 46.42,-46.41 81.92,-103.76 102.16,-167.72l17.26 0zm-337.5 -529.68c58.6,39.93 97.84,127.8 117.83,232.34 2.12,11.09 4.02,22.37 5.71,33.8l-16.66 0c-1.56,-10.38 -3.31,-20.63 -5.24,-30.71 -25.97,-135.85 -84.42,-242 -174.96,-242 -25.01,0 -49.51,2.25 -73.32,6.57 -58.6,39.93 -97.84,127.8 -117.82,232.34 -2.12,11.09 -4.02,22.37 -5.71,33.8l16.66 0c1.56,-10.38 3.31,-20.63 5.24,-30.71 25.96,-135.85 84.42,-242 174.96,-242 25,0 49.5,2.25 73.31,6.57zm125.79 529.68c-2.19,17 -4.84,33.72 -7.96,50.02 -19.98,104.54 -59.21,192.39 -117.8,232.33 -23.82,4.32 -48.32,6.58 -73.34,6.58 90.54,0 149,-106.16 174.96,-242 2.93,-15.3 5.43,-30.98 7.53,-46.93l16.61 0zm-272.43 282.35c-58.59,-39.94 -97.82,-127.8 -117.81,-232.33 -3.11,-16.3 -5.77,-33.01 -7.96,-50.02l16.61 0c2.1,15.95 4.6,31.63 7.53,46.93 25.97,135.85 84.42,242 174.96,242 -25.01,0 -49.51,-2.26 -73.33,-6.58zm-304.93 -532.11l60.06 197.48 46.99 -147.52 44.8 147.43 62.61 -197.38 26.35 0 -74.84 235.94 -28.73 0 -30.79 -101.36 -32.28 101.36 -28.73 0 -71.74 -235.94 26.3 0zm270.52 0l60.06 197.48 46.99 -147.52 44.81 147.43 62.61 -197.38 26.35 0 -74.84 235.94 -28.72 0 -30.8 -101.36 -32.28 101.36 -28.72 0 -71.75 -235.94 26.3 0zm271.46 0l60.07 197.48 46.98 -147.52 44.8 147.43 62.62 -197.38 26.35 0 -74.84 235.94 -28.73 0 -30.79 -101.36 -32.28 101.36 -28.73 0 -71.74 -235.94 26.29 0zm99.91 -201.73c-29.07,19.62 -69.21,35.84 -116.46,46.98 -45.18,10.65 -97.05,16.71 -152.14,16.71 -53.83,0 -104.62,-5.8 -149.12,-16.02 -46.49,-10.67 -86.23,-26.23 -115.57,-45.11l10.08 -15.71c27.55,17.71 65.26,32.42 109.66,42.62 43.09,9.89 92.46,15.52 144.95,15.52 53.67,0 104.08,-5.88 147.89,-16.21 45.04,-10.61 83.04,-25.91 110.25,-44.26l10.46 15.49zm-10.46 663.36c-27.21,-18.36 -65.21,-33.65 -110.25,-44.26 -43.81,-10.33 -94.22,-16.21 -147.89,-16.21 -52.49,0 -101.86,5.62 -144.95,15.52 -44.4,10.19 -82.11,24.91 -109.66,42.62l-10.08 -15.71c29.35,-18.87 69.08,-34.43 115.57,-45.11 44.5,-10.22 95.29,-16.02 149.12,-16.02 55.09,0 106.96,6.06 152.14,16.71 47.26,11.14 87.39,27.36 116.46,46.98l-10.46 15.49z"/>
 </g>
</svg>
